<svg width="1378" height="898" viewBox="0 0 1378 898" fill="none" xmlns="http://www.w3.org/2000/svg">
<mask id="path-1-inside-1_287_9495" fill="white">
<path d="M426.558 33.1804C435.626 45.2306 449.83 52.3184 464.911 52.3184L917.026 52.3184C932.107 52.3184 946.311 45.2306 955.379 33.1804L965.947 19.138C975.015 7.08777 989.219 0 1004.3 0L1330 0C1356.51 0 1378 21.4903 1378 48V849.462C1378 875.972 1356.51 897.462 1330 897.462H1004.3C989.219 897.462 975.015 890.374 965.947 878.324L955.379 864.281C946.311 852.231 932.107 845.144 917.026 845.144H464.911C449.83 845.144 435.626 852.231 426.558 864.281L415.99 878.324C406.922 890.374 392.718 897.462 377.637 897.462H48C21.4903 897.462 0 875.972 0 849.462L0 48C0 21.4904 21.4903 0 48 0L377.637 0C392.718 0 406.923 7.08777 415.991 19.138L426.558 33.1804Z"/>
</mask>
<path d="M426.558 33.1804C435.626 45.2306 449.83 52.3184 464.911 52.3184L917.026 52.3184C932.107 52.3184 946.311 45.2306 955.379 33.1804L965.947 19.138C975.015 7.08777 989.219 0 1004.3 0L1330 0C1356.51 0 1378 21.4903 1378 48V849.462C1378 875.972 1356.51 897.462 1330 897.462H1004.3C989.219 897.462 975.015 890.374 965.947 878.324L955.379 864.281C946.311 852.231 932.107 845.144 917.026 845.144H464.911C449.83 845.144 435.626 852.231 426.558 864.281L415.99 878.324C406.922 890.374 392.718 897.462 377.637 897.462H48C21.4903 897.462 0 875.972 0 849.462L0 48C0 21.4904 21.4903 0 48 0L377.637 0C392.718 0 406.923 7.08777 415.991 19.138L426.558 33.1804Z" fill="#363636" fill-opacity="0.24"/>
<path d="M415.991 19.138L415.192 19.7393L415.991 19.138ZM426.558 864.281L425.759 863.68L426.558 864.281ZM955.379 864.281L954.58 864.883L955.379 864.281ZM965.947 19.138L966.746 19.7392L965.947 19.138ZM955.379 33.1804L954.58 32.5791L955.379 33.1804ZM426.558 33.1804L427.357 32.5791L426.558 33.1804ZM464.911 52.3184V53.3184L917.026 53.3184V52.3184V51.3184L464.911 51.3184V52.3184ZM955.379 33.1804L956.178 33.7817L966.746 19.7392L965.947 19.138L965.148 18.5367L954.58 32.5791L955.379 33.1804ZM1004.3 0V1L1330 1V0V-1L1004.3 -1V0ZM1378 48H1377V849.462H1378H1379V48H1378ZM1330 897.462V896.462H1004.3V897.462V898.462H1330V897.462ZM965.947 878.324L966.746 877.723L956.178 863.68L955.379 864.281L954.58 864.883L965.148 878.925L965.947 878.324ZM917.026 845.144V844.144H464.911V845.144V846.144H917.026V845.144ZM426.558 864.281L425.759 863.68L415.191 877.723L415.99 878.324L416.789 878.926L427.357 864.882L426.558 864.281ZM377.637 897.462V896.462H48V897.462V898.462H377.637V897.462ZM0 849.462H1L1 48H0H-1L-1 849.462H0ZM48 0V1L377.637 1V0V-1L48 -1V0ZM415.991 19.138L415.192 19.7393L425.759 33.7817L426.558 33.1804L427.357 32.5791L416.79 18.5367L415.991 19.138ZM377.637 0V1C392.404 1 406.312 7.94011 415.192 19.7393L415.991 19.138L416.79 18.5367C407.533 6.23543 393.033 -1 377.637 -1V0ZM0 48H1C1 22.0427 22.0426 1 48 1V0V-1C20.938 -1 -1 20.9381 -1 48H0ZM48 897.462V896.462C22.0426 896.462 1 875.419 1 849.462H0H-1C-1 876.524 20.938 898.462 48 898.462V897.462ZM415.99 878.324L415.191 877.723C406.312 889.522 392.403 896.462 377.637 896.462V897.462V898.462C393.032 898.462 407.532 891.227 416.789 878.926L415.99 878.324ZM464.911 845.144V844.144C449.516 844.144 435.016 851.379 425.759 863.68L426.558 864.281L427.357 864.882C436.236 853.083 450.144 846.144 464.911 846.144V845.144ZM955.379 864.281L956.178 863.68C946.921 851.379 932.421 844.144 917.026 844.144V845.144V846.144C931.793 846.144 945.701 853.084 954.58 864.883L955.379 864.281ZM1004.3 897.462V896.462C989.533 896.462 975.625 889.522 966.746 877.723L965.947 878.324L965.148 878.925C974.405 891.227 988.905 898.462 1004.3 898.462V897.462ZM1378 849.462H1377C1377 875.419 1355.96 896.462 1330 896.462V897.462V898.462C1357.06 898.462 1379 876.524 1379 849.462H1378ZM1330 0V1C1355.96 1 1377 22.0426 1377 48H1378H1379C1379 20.938 1357.06 -1 1330 -1V0ZM965.947 19.138L966.746 19.7392C975.625 7.9401 989.533 1 1004.3 1V0V-1C988.905 -1 974.405 6.23543 965.148 18.5367L965.947 19.138ZM917.026 52.3184V53.3184C932.421 53.3184 946.921 46.0829 956.178 33.7817L955.379 33.1804L954.58 32.5791C945.701 44.3783 931.793 51.3184 917.026 51.3184V52.3184ZM464.911 52.3184V51.3184C450.145 51.3184 436.236 44.3783 427.357 32.5791L426.558 33.1804L425.759 33.7817C435.016 46.0829 449.516 53.3184 464.911 53.3184V52.3184Z" fill="url(#paint0_radial_287_9495)" mask="url(#path-1-inside-1_287_9495)"/>
<path d="M415.991 19.138L415.192 19.7393L415.991 19.138ZM426.558 864.281L425.759 863.68L426.558 864.281ZM955.379 864.281L954.58 864.883L955.379 864.281ZM965.947 19.138L966.746 19.7392L965.947 19.138ZM955.379 33.1804L954.58 32.5791L955.379 33.1804ZM426.558 33.1804L427.357 32.5791L426.558 33.1804ZM464.911 52.3184V53.3184L917.026 53.3184V52.3184V51.3184L464.911 51.3184V52.3184ZM955.379 33.1804L956.178 33.7817L966.746 19.7392L965.947 19.138L965.148 18.5367L954.58 32.5791L955.379 33.1804ZM1004.3 0V1L1330 1V0V-1L1004.3 -1V0ZM1378 48H1377V849.462H1378H1379V48H1378ZM1330 897.462V896.462H1004.3V897.462V898.462H1330V897.462ZM965.947 878.324L966.746 877.723L956.178 863.68L955.379 864.281L954.58 864.883L965.148 878.925L965.947 878.324ZM917.026 845.144V844.144H464.911V845.144V846.144H917.026V845.144ZM426.558 864.281L425.759 863.68L415.191 877.723L415.99 878.324L416.789 878.926L427.357 864.882L426.558 864.281ZM377.637 897.462V896.462H48V897.462V898.462H377.637V897.462ZM0 849.462H1L1 48H0H-1L-1 849.462H0ZM48 0V1L377.637 1V0V-1L48 -1V0ZM415.991 19.138L415.192 19.7393L425.759 33.7817L426.558 33.1804L427.357 32.5791L416.79 18.5367L415.991 19.138ZM377.637 0V1C392.404 1 406.312 7.94011 415.192 19.7393L415.991 19.138L416.79 18.5367C407.533 6.23543 393.033 -1 377.637 -1V0ZM0 48H1C1 22.0427 22.0426 1 48 1V0V-1C20.938 -1 -1 20.9381 -1 48H0ZM48 897.462V896.462C22.0426 896.462 1 875.419 1 849.462H0H-1C-1 876.524 20.938 898.462 48 898.462V897.462ZM415.99 878.324L415.191 877.723C406.312 889.522 392.403 896.462 377.637 896.462V897.462V898.462C393.032 898.462 407.532 891.227 416.789 878.926L415.99 878.324ZM464.911 845.144V844.144C449.516 844.144 435.016 851.379 425.759 863.68L426.558 864.281L427.357 864.882C436.236 853.083 450.144 846.144 464.911 846.144V845.144ZM955.379 864.281L956.178 863.68C946.921 851.379 932.421 844.144 917.026 844.144V845.144V846.144C931.793 846.144 945.701 853.084 954.58 864.883L955.379 864.281ZM1004.3 897.462V896.462C989.533 896.462 975.625 889.522 966.746 877.723L965.947 878.324L965.148 878.925C974.405 891.227 988.905 898.462 1004.3 898.462V897.462ZM1378 849.462H1377C1377 875.419 1355.96 896.462 1330 896.462V897.462V898.462C1357.06 898.462 1379 876.524 1379 849.462H1378ZM1330 0V1C1355.96 1 1377 22.0426 1377 48H1378H1379C1379 20.938 1357.06 -1 1330 -1V0ZM965.947 19.138L966.746 19.7392C975.625 7.9401 989.533 1 1004.3 1V0V-1C988.905 -1 974.405 6.23543 965.148 18.5367L965.947 19.138ZM917.026 52.3184V53.3184C932.421 53.3184 946.921 46.0829 956.178 33.7817L955.379 33.1804L954.58 32.5791C945.701 44.3783 931.793 51.3184 917.026 51.3184V52.3184ZM464.911 52.3184V51.3184C450.145 51.3184 436.236 44.3783 427.357 32.5791L426.558 33.1804L425.759 33.7817C435.016 46.0829 449.516 53.3184 464.911 53.3184V52.3184Z" fill="#FFEA5A" fill-opacity="0.3" mask="url(#path-1-inside-1_287_9495)"/>
<defs>
<radialGradient id="paint0_radial_287_9495" cx="0" cy="0" r="1" gradientUnits="userSpaceOnUse" gradientTransform="translate(689 -128.784) rotate(90) scale(334.033 512.888)">
<stop stop-color="#FF8A00"/>
<stop offset="1" stop-color="white" stop-opacity="0"/>
</radialGradient>
</defs>
</svg>
