<svg width="141" height="134" viewBox="0 0 141 134" fill="none" xmlns="http://www.w3.org/2000/svg">
<g filter="url(#filter0_d_422_5647)">
<path d="M33.6077 56.6411C31.4641 52.9283 31.4641 48.3539 33.6077 44.6411L46.6795 22.0001C48.8231 18.2873 52.7846 16.0001 57.0718 16.0001H83.2154C87.5026 16.0001 91.4641 18.2873 93.6077 22.0001L106.679 44.6411C108.823 48.3539 108.823 52.9283 106.679 56.6411L93.6077 79.2821C91.4641 82.9949 87.5026 85.2821 83.2154 85.2821H57.0718C52.7846 85.2821 48.8231 82.9949 46.6795 79.2821L33.6077 56.6411Z" fill="#F1B421"/>
</g>
<path d="M29.2832 57.2515C26.9217 53.1612 26.9217 48.121 29.2832 44.0308L43.9893 18.5601C46.3508 14.4699 50.7146 11.9498 55.4375 11.9497H84.8497C89.5726 11.9498 93.9364 14.4699 96.2979 18.5601L111.004 44.0308C113.365 48.121 113.365 53.1612 111.004 57.2515L96.2979 82.7222C93.9364 86.8123 89.5726 89.3324 84.8497 89.3325H55.4375C50.7146 89.3324 46.3508 86.8123 43.9893 82.7222L29.2832 57.2515Z" stroke="#F1B421" stroke-width="0.56"/>
<path d="M59.1436 50.0161C58.7984 50.0161 58.5186 50.2959 58.5186 50.6411C58.5186 50.9863 58.7984 51.2661 59.1436 51.2661V50.6411V50.0161ZM81.5855 51.0831C81.8296 50.839 81.8296 50.4432 81.5855 50.1992L77.6081 46.2217C77.364 45.9776 76.9683 45.9776 76.7242 46.2217C76.4801 46.4658 76.4801 46.8615 76.7242 47.1056L80.2597 50.6411L76.7242 54.1766C76.4801 54.4207 76.4801 54.8165 76.7242 55.0605C76.9683 55.3046 77.364 55.3046 77.6081 55.0605L81.5855 51.0831ZM59.1436 50.6411V51.2661H81.1436V50.6411V50.0161H59.1436V50.6411Z" fill="white"/>
<defs>
<filter id="filter0_d_422_5647" x="0" y="0" width="140.287" height="133.282" filterUnits="userSpaceOnUse" color-interpolation-filters="sRGB">
<feFlood flood-opacity="0" result="BackgroundImageFix"/>
<feColorMatrix in="SourceAlpha" type="matrix" values="0 0 0 0 0 0 0 0 0 0 0 0 0 0 0 0 0 0 127 0" result="hardAlpha"/>
<feOffset dy="16"/>
<feGaussianBlur stdDeviation="16"/>
<feComposite in2="hardAlpha" operator="out"/>
<feColorMatrix type="matrix" values="0 0 0 0 0.94902 0 0 0 0 0.996078 0 0 0 0 0.466667 0 0 0 0.4 0"/>
<feBlend mode="normal" in2="BackgroundImageFix" result="effect1_dropShadow_422_5647"/>
<feBlend mode="normal" in="SourceGraphic" in2="effect1_dropShadow_422_5647" result="shape"/>
</filter>
</defs>
</svg>
